<svg width="35" height="35" viewBox="0 0 35 35" fill="none" xmlns="http://www.w3.org/2000/svg">
<g clip-path="url(#clip0_255_2742)">
<path d="M11.6667 23.3333C11.6667 24.5408 10.6867 25.5208 9.47917 25.5208C8.27167 25.5208 7.29167 24.5408 7.29167 23.3333C7.29167 22.1258 8.27167 21.1458 9.47917 21.1458C10.6867 21.1458 11.6667 22.1258 11.6667 23.3333ZM9.47917 6.5625C8.27167 6.5625 7.29167 7.5425 7.29167 8.75C7.29167 9.9575 8.27167 10.9375 9.47917 10.9375C10.6867 10.9375 11.6667 9.9575 11.6667 8.75C11.6667 7.5425 10.6867 6.5625 9.47917 6.5625ZM9.47917 13.8542C8.27167 13.8542 7.29167 14.8342 7.29167 16.0417C7.29167 17.2492 8.27167 18.2292 9.47917 18.2292C10.6867 18.2292 11.6667 17.2492 11.6667 16.0417C11.6667 14.8342 10.6867 13.8542 9.47917 13.8542ZM27.7083 0H7.29167C3.27104 0 0 3.27104 0 7.29167V26.25C0 30.2706 3.27104 33.5417 7.29167 33.5417H11.6667C12.4717 33.5417 13.125 32.8898 13.125 32.0833C13.125 31.2769 12.4717 30.625 11.6667 30.625H7.29167C4.87958 30.625 2.91667 28.6621 2.91667 26.25V7.29167C2.91667 4.87958 4.87958 2.91667 7.29167 2.91667H27.7083C30.1204 2.91667 32.0833 4.87958 32.0833 7.29167V20.4167C32.0833 21.2231 32.7367 21.875 33.5417 21.875C34.3467 21.875 35 21.2231 35 20.4167V7.29167C35 3.27104 31.729 0 27.7083 0ZM16.0417 10.2083H26.25C27.055 10.2083 27.7083 9.555 27.7083 8.75C27.7083 7.945 27.055 7.29167 26.25 7.29167H16.0417C15.2367 7.29167 14.5833 7.945 14.5833 8.75C14.5833 9.555 15.2367 10.2083 16.0417 10.2083ZM16.0417 17.5H26.25C27.055 17.5 27.7083 16.8467 27.7083 16.0417C27.7083 15.2367 27.055 14.5833 26.25 14.5833H16.0417C15.2367 14.5833 14.5833 15.2367 14.5833 16.0417C14.5833 16.8467 15.2367 17.5 16.0417 17.5ZM34.5698 27.0506C35.14 27.8935 35.14 28.9815 34.5698 29.8244C33.2631 31.7567 30.2546 35 24.7917 35C19.3288 35 16.3202 31.7567 15.0121 29.8244C14.4419 28.98 14.4419 27.8921 15.0121 27.0506C16.3188 25.1183 19.3258 21.875 24.7902 21.875C30.2546 21.875 33.2631 25.1183 34.5698 27.0506ZM31.9813 28.4375C30.9167 26.9704 28.681 24.7917 24.7917 24.7917C20.9023 24.7917 18.6652 26.9719 17.6021 28.4375C18.6652 29.9046 20.9023 32.0833 24.7917 32.0833C28.681 32.0833 30.9167 29.9046 31.9813 28.4375ZM24.7917 26.25C23.5842 26.25 22.6042 27.23 22.6042 28.4375C22.6042 29.645 23.5842 30.625 24.7917 30.625C25.9992 30.625 26.9792 29.645 26.9792 28.4375C26.9792 27.23 25.9992 26.25 24.7917 26.25Z" fill="#5570F1"/>
</g>
<defs>
<clipPath id="clip0_255_2742">
<rect width="35" height="35" fill="white"/>
</clipPath>
</defs>
</svg>
