<svg width="20" height="20" viewBox="0 0 20 20" fill="none" xmlns="http://www.w3.org/2000/svg">
<g clip-path="url(#clip0_357_4365)">
<path d="M10.0001 20C9.35843 20 8.71593 19.9392 8.09093 19.8183C7.63926 19.7308 7.34343 19.2942 7.43093 18.8425C7.51759 18.3908 7.95176 18.0967 8.40676 18.1825C8.92759 18.2833 9.46426 18.3342 10.0001 18.3342C14.5951 18.3342 18.3334 14.5958 18.3334 10.0008C18.3334 5.40583 14.5951 1.66667 10.0001 1.66667C9.43259 1.66667 8.86509 1.72417 8.31426 1.8375C7.86176 1.93083 7.42259 1.64 7.33009 1.18917C7.23759 0.738333 7.52759 0.2975 7.97843 0.205C8.64009 0.0691667 9.32009 0 10.0001 0C15.5143 0 20.0001 4.48583 20.0001 10C20.0001 15.5142 15.5143 20 10.0001 20ZM8.69093 5.5425L6.07676 8.16167C5.75176 8.4875 5.75259 9.015 6.07759 9.34083C6.40426 9.66667 6.93176 9.665 7.25676 9.34L9.16676 7.42583V14.1675C9.16676 14.6275 9.54009 15.0008 10.0001 15.0008C10.4601 15.0008 10.8334 14.6275 10.8334 14.1675V7.425L12.7434 9.33917C13.0693 9.665 13.5959 9.665 13.9218 9.34C14.2484 9.015 14.2484 8.4875 13.9234 8.16083L11.3101 5.5425C10.9509 5.185 10.4818 5.005 10.0118 5.0025C10.0076 5.0025 10.0043 5 10.0001 5C9.99593 5 9.99259 5.0025 9.98926 5.0025C9.51843 5.005 9.04926 5.18417 8.69093 5.5425ZM5.20843 3.18167C5.58509 2.91667 5.67509 2.39667 5.41009 2.02C5.24759 1.79 4.99009 1.66667 4.72759 1.66667C4.56176 1.66667 4.39509 1.71583 4.24843 1.81833C3.68926 2.2125 3.16759 2.66583 2.69926 3.16583C2.38426 3.50167 2.40176 4.02917 2.73759 4.34333C3.07343 4.65833 3.60093 4.64167 3.91509 4.305C4.30593 3.88833 4.74176 3.51 5.20843 3.18167ZM2.25009 6.93167C2.42009 6.50417 2.21093 6.01917 1.78259 5.85C1.68176 5.81 1.57759 5.79083 1.47593 5.79083C1.14426 5.79083 0.830927 5.99 0.700927 6.3175C0.463427 6.915 0.28426 7.54 0.16676 8.175C0.083427 8.6275 0.382594 9.0625 0.835094 9.14583C1.28843 9.23167 1.72259 8.93 1.80593 8.4775C1.90343 7.94917 2.05259 7.42917 2.25009 6.93167ZM5.41009 17.98C5.67509 17.6033 5.58426 17.0833 5.20843 16.8183C4.74176 16.49 4.30676 16.1117 3.91593 15.695C3.75176 15.52 3.53009 15.4317 3.30843 15.4317C3.10426 15.4317 2.89926 15.5058 2.73843 15.6575C2.40259 15.9717 2.38509 16.4992 2.70009 16.835C3.16843 17.335 3.69009 17.7883 4.24926 18.1825C4.62676 18.4475 5.14593 18.3567 5.41093 17.9808L5.41009 17.98ZM2.25009 13.0683C2.05259 12.5708 1.90343 12.0508 1.80593 11.5225C1.73176 11.1217 1.38176 10.8408 0.987594 10.8408C0.937594 10.8408 0.88676 10.845 0.835094 10.855C0.382594 10.9383 0.083427 11.3733 0.16676 11.8258C0.28426 12.4608 0.463427 13.0858 0.700927 13.6833C0.870094 14.1117 1.35259 14.3217 1.78259 14.1508C2.21093 13.9808 2.42009 13.4958 2.25009 13.0683Z" fill="#F9F9F9"/>
</g>
<defs>
<clipPath id="clip0_357_4365">
<rect width="20" height="20" fill="white"/>
</clipPath>
</defs>
</svg>
