<svg width="34" height="34" viewBox="0 0 34 34" fill="none" xmlns="http://www.w3.org/2000/svg">
<g clip-path="url(#clip0_491_4214)">
<path d="M22.2516 13.7516L19.0032 17L22.2516 20.2484C22.8055 20.8023 22.8055 21.6977 22.2516 22.2516C21.9753 22.5278 21.6127 22.6667 21.25 22.6667C20.8873 22.6667 20.5247 22.5278 20.2484 22.2516L17 19.0032L13.7516 22.2516C13.4753 22.5278 13.1127 22.6667 12.75 22.6667C12.3873 22.6667 12.0247 22.5278 11.7484 22.2516C11.1945 21.6977 11.1945 20.8023 11.7484 20.2484L14.9968 17L11.7484 13.7516C11.1945 13.1977 11.1945 12.3023 11.7484 11.7484C12.3023 11.1945 13.1977 11.1945 13.7516 11.7484L17 14.9968L20.2484 11.7484C20.8023 11.1945 21.6977 11.1945 22.2516 11.7484C22.8055 12.3023 22.8055 13.1977 22.2516 13.7516ZM34 17C34 26.3741 26.3741 34 17 34C7.62592 34 0 26.3741 0 17C0 7.62592 7.62592 0 17 0C26.3741 0 34 7.62592 34 17ZM31.1667 17C31.1667 9.1885 24.8115 2.83333 17 2.83333C9.1885 2.83333 2.83333 9.1885 2.83333 17C2.83333 24.8115 9.1885 31.1667 17 31.1667C24.8115 31.1667 31.1667 24.8115 31.1667 17Z" fill="#C8C8C8"/>
</g>
<defs>
<clipPath id="clip0_491_4214">
<rect width="34" height="34" fill="white"/>
</clipPath>
</defs>
</svg>
