<svg width="20" height="20" viewBox="0 0 20 20" fill="none" xmlns="http://www.w3.org/2000/svg">
<g clip-path="url(#clip0_342_5405)">
<path d="M6.26256 4.17335C6.21627 4.05937 6.13711 3.96174 6.03516 3.89289C5.93321 3.82403 5.81309 3.78706 5.69006 3.78668C5.56476 3.78705 5.44247 3.82517 5.33916 3.89608C5.23584 3.96699 5.1563 4.06739 5.1109 4.18418L3.4634 8.50668C3.439 8.57064 3.42745 8.63878 3.42941 8.70721C3.43137 8.77564 3.4468 8.84301 3.47482 8.90547C3.50284 8.96793 3.54289 9.02425 3.5927 9.07122C3.6425 9.11818 3.70107 9.15487 3.76506 9.17918C3.82422 9.20144 3.88686 9.21301 3.95006 9.21335C4.05535 9.21339 4.15818 9.18157 4.24504 9.12207C4.3319 9.06258 4.39872 8.9782 4.43673 8.88002L4.71923 8.13918H6.64506L6.92423 8.87835C6.94836 8.94237 6.98486 9.00101 7.03166 9.05092C7.07845 9.10083 7.13462 9.14104 7.19695 9.16924C7.25928 9.19745 7.32656 9.2131 7.39494 9.21531C7.46332 9.21751 7.53146 9.20623 7.59548 9.1821C7.6595 9.15797 7.71814 9.12146 7.76805 9.07467C7.81796 9.02788 7.85817 8.97171 7.88638 8.90938C7.91458 8.84705 7.93023 8.77977 7.93244 8.71139C7.93465 8.64301 7.92336 8.57487 7.89923 8.51085L6.26256 4.17335ZM5.1159 7.09502L5.6859 5.59502L6.25173 7.09502H5.1159Z" fill="#5570F1"/>
<path d="M9.36019 3.78668C9.22212 3.7869 9.08977 3.84185 8.99215 3.93947C8.89452 4.0371 8.83958 4.16945 8.83936 4.30752V8.69252C8.83936 8.83065 8.89423 8.96313 8.9919 9.0608C9.08958 9.15848 9.22206 9.21335 9.36019 9.21335C9.49832 9.21335 9.6308 9.15848 9.72847 9.0608C9.82615 8.96313 9.88102 8.83065 9.88102 8.69252V4.30752C9.88102 4.16938 9.82615 4.03691 9.72847 3.93923C9.6308 3.84156 9.49832 3.78668 9.36019 3.78668Z" fill="#5570F1"/>
<path d="M15.8333 0H4.16667C3.062 0.00132321 2.00297 0.440735 1.22185 1.22185C0.440735 2.00296 0.00132321 3.062 0 4.16667L0 15.8333C0.00132321 16.938 0.440735 17.997 1.22185 18.7782C2.00297 19.5593 3.062 19.9987 4.16667 20H13.6192C14.1666 20.0016 14.7089 19.8945 15.2147 19.6851C15.7205 19.4757 16.1797 19.1681 16.5658 18.78L18.7792 16.565C19.1673 16.1791 19.475 15.72 19.6846 15.2143C19.8941 14.7087 20.0013 14.1665 20 13.6192V4.16667C19.9987 3.062 19.5593 2.00296 18.7782 1.22185C17.997 0.440735 16.938 0.00132321 15.8333 0ZM1.66667 15.8333V4.16667C1.66667 3.50363 1.93006 2.86774 2.3989 2.3989C2.86774 1.93006 3.50363 1.66667 4.16667 1.66667H15.8333C16.4964 1.66667 17.1323 1.93006 17.6011 2.3989C18.0699 2.86774 18.3333 3.50363 18.3333 4.16667V12.5H15C14.337 12.5 13.7011 12.7634 13.2322 13.2322C12.7634 13.7011 12.5 14.337 12.5 15V18.3333H4.16667C3.50363 18.3333 2.86774 18.0699 2.3989 17.6011C1.93006 17.1323 1.66667 16.4964 1.66667 15.8333ZM15.3875 17.6017C15.0525 17.9358 14.6289 18.1672 14.1667 18.2683V15C14.1667 14.779 14.2545 14.567 14.4107 14.4107C14.567 14.2545 14.779 14.1667 15 14.1667H18.2708C18.1677 14.6279 17.9367 15.0508 17.6042 15.3867L15.3875 17.6017Z" fill="#5570F1"/>
</g>
<defs>
<clipPath id="clip0_342_5405">
<rect width="20" height="20" fill="white"/>
</clipPath>
</defs>
</svg>
