<svg width="20" height="20" viewBox="0 0 20 20" fill="none" xmlns="http://www.w3.org/2000/svg">
<g clip-path="url(#clip0_290_5730)">
<path d="M3.33325 5.00045C3.00471 5.00131 2.67926 4.93702 2.37573 4.81129C2.0722 4.68555 1.79662 4.50088 1.56492 4.26795L0.278254 3.12295C0.113157 2.97576 0.0132945 2.76901 0.000635761 2.54818C-0.0120229 2.32736 0.0635588 2.11055 0.210754 1.94545C0.357949 1.78036 0.5647 1.68049 0.785524 1.66783C1.00635 1.65518 1.22316 1.73076 1.38825 1.87795L2.70909 3.05629C2.7847 3.1412 2.87689 3.20974 2.97998 3.25769C3.08308 3.30564 3.19489 3.33199 3.30855 3.33512C3.42221 3.33824 3.5353 3.31807 3.64087 3.27585C3.74644 3.23363 3.84226 3.17025 3.92242 3.08962L6.92575 0.230452C7.08725 0.0866777 7.2983 0.0113017 7.51434 0.0202451C7.73038 0.0291884 7.93448 0.121751 8.08354 0.278382C8.2326 0.435013 8.31494 0.643448 8.31318 0.859662C8.31141 1.07588 8.22568 1.28294 8.07409 1.43712L5.08325 4.28212C4.85306 4.51097 4.58002 4.6922 4.27975 4.81546C3.97947 4.93871 3.65784 5.00158 3.33325 5.00045ZM5.08325 10.9488L8.07409 8.10378C8.15756 8.02947 8.22524 7.93912 8.27308 7.83811C8.32093 7.73711 8.34797 7.62751 8.35259 7.51584C8.35721 7.40417 8.33933 7.29271 8.29999 7.1881C8.26066 7.08348 8.20068 6.98785 8.12364 6.90689C8.04659 6.82593 7.95404 6.76129 7.8515 6.71683C7.74896 6.67236 7.63853 6.64898 7.52677 6.64807C7.41501 6.64716 7.3042 6.66873 7.20095 6.71152C7.0977 6.75431 7.00411 6.81742 6.92575 6.89712L3.92575 9.75628C3.76711 9.90798 3.55608 9.99264 3.33659 9.99264C3.1171 9.99264 2.90606 9.90798 2.74742 9.75628L1.42242 8.43545C1.26525 8.28365 1.05475 8.19966 0.836253 8.20156C0.617756 8.20345 0.408745 8.2911 0.254239 8.4456C0.0997318 8.60011 0.012091 8.80912 0.0101923 9.02762C0.00829361 9.24611 0.092289 9.45662 0.244087 9.61378L1.56492 10.9346C2.03131 11.4011 2.66318 11.6644 3.32284 11.667C3.98249 11.6697 4.61646 11.4115 5.08659 10.9488H5.08325ZM5.08325 17.6155L8.07075 14.7705C8.15423 14.6961 8.2219 14.6058 8.26975 14.5048C8.31759 14.4038 8.34463 14.2942 8.34926 14.1825C8.35388 14.0708 8.33599 13.9594 8.29666 13.8548C8.25733 13.7502 8.19735 13.6545 8.1203 13.5736C8.04325 13.4926 7.95071 13.428 7.84817 13.3835C7.74563 13.339 7.63519 13.3156 7.52343 13.3147C7.41167 13.3138 7.30087 13.3354 7.19762 13.3782C7.09437 13.421 7.00078 13.4841 6.92242 13.5638L3.92242 16.423C3.84226 16.5036 3.74644 16.567 3.64087 16.6092C3.5353 16.6514 3.42221 16.6716 3.30855 16.6684C3.19489 16.6653 3.08308 16.639 2.97998 16.591C2.87689 16.5431 2.7847 16.4745 2.70909 16.3896L1.38825 15.2113C1.22316 15.0641 1.00635 14.9885 0.785524 15.0012C0.5647 15.0138 0.357949 15.1137 0.210754 15.2788C0.0635588 15.4439 -0.0120229 15.6607 0.000635761 15.8815C0.0132945 16.1023 0.113157 16.3091 0.278254 16.4563L1.56492 17.6013C2.03131 18.0678 2.66318 18.331 3.32284 18.3337C3.98249 18.3364 4.61646 18.0782 5.08659 17.6155H5.08325Z" fill="#5570F1"/>
<path d="M20 3.33333C20 3.11232 19.9122 2.90036 19.7559 2.74408C19.5996 2.5878 19.3877 2.5 19.1667 2.5H10.8333C10.6123 2.5 10.4004 2.5878 10.2441 2.74408C10.0878 2.90036 10 3.11232 10 3.33333C10 3.55435 10.0878 3.76631 10.2441 3.92259C10.4004 4.07887 10.6123 4.16667 10.8333 4.16667H19.1667C19.3877 4.16667 19.5996 4.07887 19.7559 3.92259C19.9122 3.76631 20 3.55435 20 3.33333ZM20 10C20 9.77899 19.9122 9.56702 19.7559 9.41074C19.5996 9.25446 19.3877 9.16667 19.1667 9.16667H10.8333C10.6123 9.16667 10.4004 9.25446 10.2441 9.41074C10.0878 9.56702 10 9.77899 10 10C10 10.221 10.0878 10.433 10.2441 10.5893C10.4004 10.7455 10.6123 10.8333 10.8333 10.8333H19.1667C19.3877 10.8333 19.5996 10.7455 19.7559 10.5893C19.9122 10.433 20 10.221 20 10ZM20 16.6667C20 16.4457 19.9122 16.2337 19.7559 16.0774C19.5996 15.9211 19.3877 15.8333 19.1667 15.8333H10.8333C10.6123 15.8333 10.4004 15.9211 10.2441 16.0774C10.0878 16.2337 10 16.4457 10 16.6667C10 16.8877 10.0878 17.0996 10.2441 17.2559C10.4004 17.4122 10.6123 17.5 10.8333 17.5H19.1667C19.3877 17.5 19.5996 17.4122 19.7559 17.2559C19.9122 17.0996 20 16.8877 20 16.6667Z" fill="black"/>
</g>
<defs>
<clipPath id="clip0_290_5730">
<rect width="20" height="20" fill="white"/>
</clipPath>
</defs>
</svg>
