<svg width="18" height="17" viewBox="0 0 18 17" fill="none" xmlns="http://www.w3.org/2000/svg">
<g opacity="0.4">
<path d="M6.74547 7.69167C6.38089 7.69167 6.09261 7.975 6.09261 8.33333C6.09261 8.68333 6.38089 8.975 6.74547 8.975H11.8327V12.9583C11.8327 15 10.1454 16.6667 8.05967 16.6667H3.93055C1.85327 16.6667 0.166016 15.0083 0.166016 12.9667V3.70833C0.166016 1.65833 1.86175 0 3.93903 0H8.07663C10.1454 0 11.8327 1.65833 11.8327 3.7V7.69167H6.74547ZM14.8579 5.45017L17.2912 7.87517C17.4162 8.00017 17.4829 8.1585 17.4829 8.3335C17.4829 8.50017 17.4162 8.66684 17.2912 8.7835L14.8579 11.2085C14.7329 11.3335 14.5662 11.4002 14.4079 11.4002C14.2412 11.4002 14.0745 11.3335 13.9495 11.2085C13.6995 10.9585 13.6995 10.5502 13.9495 10.3002L15.2829 8.97517H11.8329V7.69184H15.2829L13.9495 6.36684C13.6995 6.11684 13.6995 5.7085 13.9495 5.45851C14.1995 5.20017 14.6079 5.20017 14.8579 5.45017Z"/>
</g>
</svg>
