<svg width="33" height="33" viewBox="0 0 33 33" fill="none" xmlns="http://www.w3.org/2000/svg">
<g clip-path="url(#clip0_2022_1439)">
<path d="M32.963 8.87966C32.9666 8.71056 32.9359 8.54248 32.8729 8.38552C32.8099 8.22855 32.7158 8.08594 32.5964 7.96623C32.4769 7.84652 32.3344 7.75219 32.1776 7.68889C32.0207 7.62559 31.8527 7.59463 31.6836 7.59787C30.9927 7.60581 30.4589 8.14755 30.4335 8.86697C30.4288 8.98595 30.4335 9.10492 30.4335 9.22311C30.4335 15.7748 30.4335 22.3268 30.4335 28.879C30.4335 29.8982 29.9537 30.3757 28.9265 30.3757H14.8872C12.9224 30.3757 10.9577 30.3757 8.99301 30.3757C8.17841 30.3757 7.66443 29.8506 7.65015 29.0376C7.64619 28.8266 7.65015 28.6157 7.65015 28.4031C7.65015 27.8478 7.65015 27.8478 8.20538 27.8478C13.4933 27.8478 18.7812 27.8478 24.069 27.8478C26.2162 27.8478 27.9017 26.1774 27.9041 24.0406C27.912 17.3038 27.912 10.5676 27.9041 3.83184C27.9041 1.66645 26.2194 0.00552245 24.0508 0.00472927C17.3251 0.00102774 10.6003 0.00102774 3.87619 0.00472927C3.37357 0.00220332 2.87544 0.099391 2.41063 0.290667C1.94582 0.481942 1.52357 0.763508 1.1683 1.11907C0.813042 1.47462 0.531828 1.89711 0.340938 2.36208C0.150048 2.82705 0.0532743 3.32526 0.0562175 3.82787C0.0562175 4.71069 0.0562175 5.59429 0.0562175 6.47711C0.0562175 12.3176 0.0562175 18.1578 0.0562175 23.9977C0.0562175 25.9228 1.36656 27.4584 3.26226 27.7923C3.77466 27.8827 4.28864 27.8391 4.80104 27.8431C5.03899 27.8431 5.13418 27.9272 5.12228 28.1667C5.1088 28.4292 5.12228 28.6934 5.12228 28.9599C5.13021 31.2799 6.76655 32.9107 9.0882 32.9123C12.4111 32.9123 15.734 32.9123 19.0569 32.9123H28.944C31.3457 32.9123 32.9678 31.2934 32.9678 28.8941C32.9678 24.2143 32.9678 19.5345 32.9678 14.8547C32.9678 12.8614 32.9725 10.8706 32.963 8.87966ZM4.12287 25.3152C3.04572 25.3152 2.58409 24.8512 2.58409 23.7733C2.58409 17.1962 2.58409 10.6191 2.58409 4.04203C2.58409 3.01089 3.05524 2.53498 4.07528 2.53498H23.8906C24.886 2.53498 25.3707 3.01962 25.3707 4.01665C25.3707 10.6207 25.3707 17.2242 25.3707 23.8272C25.3707 24.8441 24.8948 25.316 23.8589 25.316C20.5634 25.316 17.2678 25.316 13.9718 25.316L4.12287 25.3152Z" fill="#2D52A0"/>
<path d="M19.0427 14.9705C19.0427 15.3259 19.0538 15.6844 19.0427 16.0374C19.0308 16.3412 19.1506 16.4649 19.4591 16.4593C20.1175 16.4466 20.7766 16.453 21.4358 16.4593C22.2734 16.4641 22.8437 16.9836 22.8389 17.7284C22.8341 18.4732 22.2646 18.9801 21.4199 18.9856C20.7608 18.9896 20.1024 18.9944 19.4433 18.9856C19.1577 18.9817 19.0388 19.0943 19.0427 19.3822C19.0522 20.054 19.0491 20.7259 19.0427 21.3977C19.0356 22.2131 18.5224 22.7747 17.7887 22.781C17.0407 22.7874 16.5196 22.2171 16.5125 21.381C16.5085 20.7219 16.5029 20.0628 16.5125 19.4044C16.5188 19.0998 16.4014 18.9793 16.0945 18.9848C15.4226 18.9967 14.75 18.992 14.0782 18.9848C13.2723 18.9761 12.7084 18.4455 12.7139 17.7118C12.7195 16.9781 13.2842 16.4617 14.0956 16.4554C14.7675 16.4506 15.4393 16.4474 16.1119 16.4554C16.3975 16.4601 16.5164 16.3467 16.5085 16.0588C16.4982 15.4242 16.5085 14.7937 16.5085 14.1615C16.5085 13.2509 16.9979 12.6663 17.7625 12.6584C18.5271 12.6505 19.0356 13.2374 19.0403 14.1377C19.0403 14.4145 19.0403 14.6929 19.0403 14.9682L19.0427 14.9705Z" fill="#43BBED"/>
</g>
<defs>
<clipPath id="clip0_2022_1439">
<rect width="32.9187" height="32.91" fill="white" transform="translate(0.0507812)"/>
</clipPath>
</defs>
</svg>
