<svg width="222" height="210" viewBox="0 0 222 210" fill="none" xmlns="http://www.w3.org/2000/svg">
<path opacity="0.1" d="M138.972 7.04818C138.112 6.81268 137.254 6.82219 136.274 6.83306C136.029 6.83578 135.784 6.83849 135.539 6.84121C136.752 5.72509 137.965 4.60897 138.808 3.25192C139.049 2.88169 138.555 2.51961 138.312 2.76734C136.854 3.88617 135.52 5.12615 134.185 6.36614C134.167 4.77358 134.15 3.18103 134.132 1.58848C134.124 0.853457 133.021 0.865683 133.029 1.60071C133.047 3.19326 133.066 4.90831 133.084 6.50087C131.969 5.41056 130.855 4.44275 129.741 3.47494C129.247 3.11286 128.641 3.73218 129.135 4.09425C130.004 5.06478 130.872 6.0353 131.864 7.00447C130.638 7.01805 129.413 7.03163 128.189 7.16772C127.699 7.17315 127.707 7.90818 128.197 7.90274C129.669 8.00895 131.017 7.99401 132.365 7.97906C131.273 8.97132 130.182 10.0861 129.214 11.1995C128.729 11.6949 129.471 12.2993 129.957 11.9264C131.049 10.9341 132.143 10.0643 133.112 9.07345C133.127 10.421 133.143 11.891 133.403 13.2359C133.406 13.4809 133.896 13.4754 134.016 13.2291C134.248 12.0013 134.233 10.6538 134.218 9.30623C134.588 9.54716 134.837 9.91196 135.208 10.1529C135.95 10.7573 136.692 11.3616 137.432 11.8435C137.68 12.0858 138.044 11.7142 137.796 11.4719C137.175 10.7437 136.677 10.0141 136.056 9.28586C135.683 8.79991 135.189 8.43784 134.817 8.0744C135.43 8.06761 135.92 8.06217 136.532 8.05538C137.513 8.04452 138.248 8.03636 139.226 7.78049C139.347 7.65663 139.341 7.16661 138.972 7.04818Z" fill="#030229"/>
<path opacity="0.1" d="M12.216 68.8695C11.3555 68.634 10.4977 68.6435 9.51741 68.6544C9.27232 68.6571 9.02724 68.6598 8.78216 68.6625C9.99535 67.5464 11.2085 66.4303 12.0514 65.0733C12.2924 64.703 11.7982 64.3409 11.5558 64.5887C9.97362 65.5864 8.6406 66.9488 7.30623 68.1888C7.28857 66.5963 7.27092 65.0037 7.25327 63.4112C7.24512 62.6762 6.14225 62.6884 6.15039 63.4234C6.16805 65.016 6.18706 66.731 6.20471 68.3236C5.08962 67.2332 3.97588 66.2654 2.86214 65.2976C2.3679 64.9356 1.76199 65.5549 2.25623 65.9169C3.12488 66.8875 3.99353 67.858 4.98473 68.8272C3.75932 68.8407 2.5339 68.8543 1.30984 68.9904C0.819678 68.9958 0.827826 69.7309 1.31799 69.7254C2.78985 69.8316 4.1378 69.8167 5.48576 69.8018C4.39375 70.794 3.3031 71.9088 2.33499 73.0222C1.85025 73.5176 2.59229 74.122 3.07839 73.749C4.17039 72.7568 5.26376 71.887 6.23323 70.8961C6.24817 72.2437 6.26446 73.7137 6.52448 75.0586C6.5272 75.3036 7.01737 75.2981 7.13719 75.0518C7.3687 73.824 7.35376 72.4765 7.33882 71.1289C7.70916 71.3699 7.95832 71.7346 8.32866 71.9756C9.0707 72.58 9.81274 73.1843 10.5534 73.6662C10.8012 73.9085 11.1648 73.5369 10.917 73.2946C10.2961 72.5664 9.7978 71.8368 9.17694 71.1085C8.80389 70.6226 8.30965 70.2605 7.93795 69.8971C8.55065 69.8903 9.04082 69.8849 9.65353 69.8781C10.6339 69.8672 11.3691 69.8591 12.3467 69.6032C12.4679 69.4793 12.4625 68.9893 12.216 68.8695Z" fill="#030229"/>
<path d="M32.8467 28.3323C31.4905 27.6122 30.257 26.8908 29.2631 25.6766C28.1453 24.3413 27.6374 22.7542 26.8845 21.1698C26.8845 21.1698 26.8832 21.0473 26.7606 21.0486L26.6381 21.05C26.6381 21.05 26.6381 21.05 26.5169 21.1739C26.5169 21.1739 26.5169 21.1739 26.5183 21.2964C26.1873 24.608 24.2525 26.9573 21.8247 29.0671C21.7035 29.1909 21.7062 29.4359 21.8301 29.5571C24.5396 30.7522 26.4144 34.0395 27.3021 36.7251C27.4273 36.9687 27.795 36.9646 27.9148 36.7183C28.3873 35.1203 28.7386 33.6462 29.5801 32.1666C30.4216 30.687 31.5123 29.5723 32.8507 28.6998C32.9719 28.576 32.9692 28.331 32.8467 28.3323Z" fill="#605BFF"/>
<path d="M220.099 65.0816C218.743 64.3615 217.509 63.6401 216.638 62.4245C215.52 61.0892 215.012 59.5021 214.26 57.9177C214.26 57.9177 214.258 57.7952 214.136 57.7966L214.013 57.7979C214.013 57.7979 214.013 57.7979 213.892 57.9218C213.892 57.9218 213.892 57.9218 213.893 58.0443C213.562 61.356 211.627 63.7053 209.2 65.815C209.079 65.9389 209.081 66.1839 209.205 66.305C211.915 67.5002 213.789 70.7874 214.677 73.473C214.802 73.7166 215.17 73.7126 215.29 73.4662C215.762 71.8682 216.114 70.3941 216.955 68.9145C217.797 67.435 218.887 66.3202 220.226 65.4477C220.226 65.4477 220.223 65.2027 220.099 65.0816Z" fill="#605BFF"/>
<path d="M128.073 80.0239C127.087 79.5447 126.346 79.0629 125.602 78.2135C124.855 77.2416 124.476 76.1432 123.851 75.0474C123.851 75.0474 123.851 75.0474 123.728 75.0488L123.606 75.0501C123.606 75.0501 123.606 75.0501 123.607 75.1726C123.388 77.5029 122.057 79.1104 120.358 80.5995C120.237 80.7233 120.238 80.8459 120.361 80.8445C122.331 81.6803 123.582 83.9943 124.215 85.825C124.218 86.0701 124.586 86.066 124.583 85.821C124.816 84.7157 125.171 83.6091 125.773 82.6223C126.375 81.6355 127.102 80.8923 128.075 80.2689C128.198 80.2675 128.195 80.0225 128.073 80.0239Z" fill="#605BFF"/>
<path d="M99.0441 56.8051C97.319 55.9666 95.9615 55.124 94.8424 53.6662C93.4754 51.9661 92.8423 50.1353 91.9628 48.1847C91.9628 48.1847 91.9615 48.0622 91.8389 48.0636L91.7164 48.0649C91.7164 48.0649 91.5938 48.0663 91.5952 48.1888L91.5966 48.3113C91.1498 52.2369 88.8542 55.2028 85.9403 57.6855C85.8191 57.8093 85.8232 58.1768 86.0683 58.1741C89.3932 59.6075 91.6424 63.5032 92.6594 66.7999C92.786 67.1661 93.2762 67.1606 93.3947 66.7918C93.8645 64.9488 94.4568 63.1044 95.4181 61.3785C96.3794 59.6526 97.7124 58.2901 99.4172 57.291C99.1721 57.2937 99.2905 56.9249 99.0441 56.8051Z" fill="#605BFF"/>
<path d="M69.6574 25.9504C67.9146 23.5194 66.1733 21.2108 63.9458 19.2752C62.7095 18.3087 61.4732 17.3423 60.1171 16.6222C59.3778 16.2628 58.6398 16.026 57.9005 15.6666C57.5315 15.5482 57.1625 15.4298 56.7922 15.1888C56.4232 15.0704 56.1754 14.8281 55.8092 14.9547C55.5641 14.9574 55.4429 15.0813 55.5681 15.3249C55.6975 15.9361 56.4368 16.2954 56.931 16.6575C57.5492 17.1408 58.166 17.5015 58.7841 17.9847C60.019 18.8286 61.2553 19.7951 62.369 20.7629C64.474 22.6999 66.2126 24.7634 67.8315 27.0733C68.5789 28.1677 70.4062 27.1673 69.6574 25.9504Z" fill="#FF8F6B"/>
<path d="M68.784 75.1036C67.7779 72.7869 65.436 71.5877 63.0969 70.6335C60.7577 69.6793 58.0523 68.8516 55.6055 69.2463C53.28 69.5171 50.7229 71.0157 49.8895 73.2303C49.2945 74.8296 48.7076 77.164 50.1916 78.3727C50.935 79.0996 52.2844 79.2071 53.0115 78.464C54.2247 77.3479 53.1028 75.645 52.1129 74.7984C48.0283 71.1681 41.1728 71.8567 36.6618 73.9895C33.857 75.2458 31.4292 77.3555 29.99 80.1894C28.789 82.408 27.4845 86.3431 29.1033 88.653C29.3525 89.0178 29.8427 89.0124 30.0837 88.6422C31.4112 86.7897 31.3814 84.0946 32.34 82.1236C33.2972 80.0302 34.8712 78.2975 36.6972 77.1746C40.4688 74.6824 46.9499 73.3854 50.9011 76.037C51.3953 76.3991 52.7528 77.2416 52.0257 77.9848C51.4198 78.6041 50.4327 78.0025 50.0596 77.5165C48.5592 74.8378 52.0803 71.8583 54.2793 71.2213C56.4783 70.5843 59.0584 71.1683 61.1511 72.0027C63.4876 72.712 66.1984 74.0296 67.5681 75.9747C68.1835 76.213 69.0359 75.7134 68.784 75.1036Z" fill="#EF37FF"/>
<path d="M176.365 55.6424C176.487 55.6411 176.486 55.5186 176.363 55.5199C176.241 55.5213 176.242 55.6438 176.365 55.6424Z" fill="#3F3937"/>
<path d="M177.445 53.5476C179.485 49.6044 183.728 45.3917 188.523 46.8088C190.244 47.2798 192.468 48.8479 192.247 51.0556C192.141 52.527 190.414 51.566 189.795 50.9603C188.307 49.384 189.011 46.5583 189.48 44.7153C190.189 42.2571 191.756 39.9119 193.823 38.4187C195.523 37.0522 197.845 36.4138 199.925 36.1457C202.251 35.8749 204.342 36.5868 206.553 37.0524C207.413 37.1654 208.014 36.1786 207.395 35.5728C205.783 33.8754 202.962 33.6617 200.759 33.9311C198.433 34.202 195.989 34.8416 194.043 36.2109C190.15 38.827 187.271 44.3723 187.69 49.0233C187.958 51.1032 190.697 54.9934 193.001 52.7625C194.093 51.7703 193.705 49.9368 193.201 48.7172C192.323 46.8891 190.349 45.6858 188.506 45.2162C182.975 43.8073 178.738 48.51 176.706 53.1882C176.587 53.5571 177.204 53.9178 177.445 53.5476Z" fill="#EF37FF"/>
<path d="M71.43 48.4875C69.6872 46.0564 67.4611 44.2433 64.8741 43.0468C63.5194 42.4492 62.166 41.9741 60.8153 41.7441C59.5872 41.5126 57.7477 41.4105 56.6516 42.0353C56.4079 42.1605 56.412 42.528 56.6598 42.7703C57.6469 43.3719 59.1188 43.4781 60.2244 43.7109C61.5764 44.0635 62.6833 44.4188 63.9155 45.0177C66.256 46.0944 68.4794 47.6625 70.0942 49.605C70.7151 50.3332 72.0522 49.3382 71.43 48.4875Z" fill="#FF8F6B"/>
<path d="M43.4608 57.0064C44.5609 56.7492 45.785 56.6131 46.8878 56.6008C47.5005 56.5941 48.1133 56.5873 48.726 56.5805C49.0936 56.5764 49.4612 56.5723 49.7049 56.4471C49.9487 56.3219 50.1937 56.3192 50.4375 56.1939C50.6812 56.0687 50.6771 55.7012 50.4307 55.5814C50.1842 55.4616 49.9378 55.3418 49.8139 55.2207C49.5675 55.1009 49.0773 55.1063 48.8309 54.9865C48.2181 54.9933 47.6054 55.0001 46.8715 55.1308C45.6475 55.2669 44.4248 55.5255 43.2034 55.9066C42.4696 56.0372 42.7269 57.137 43.4608 57.0064Z" fill="#FF8F6B"/>
<path d="M174.008 86.1756C177.416 84.055 181.073 82.2992 184.982 81.1532C186.815 80.6428 188.77 80.1311 190.728 79.8644C191.83 79.7296 192.809 79.5963 193.91 79.4615C194.768 79.452 195.626 79.4425 196.357 79.0668C196.601 78.9416 196.597 78.5741 196.35 78.4543C195.488 78.0963 194.632 78.2283 193.652 78.2392C192.549 78.2514 191.57 78.3848 190.467 78.397C188.385 78.5426 186.306 78.9332 184.228 79.4463C180.073 80.4726 176.417 82.3509 173.015 85.084C172.531 85.5794 173.277 86.5513 174.008 86.1756Z" fill="#FF8F6B"/>
<path d="M167.204 80.4927C170.111 77.3975 173.887 75.2728 177.54 73.1495C179.367 72.1491 181.316 71.0248 183.267 70.1456C184.364 69.6433 185.339 69.1424 186.314 68.6415C187.289 68.1407 188.389 67.8834 189.363 67.26C189.607 67.1348 189.603 66.7673 189.234 66.6489C188.251 66.4147 187.152 66.7945 186.173 66.9278C184.949 67.0639 183.85 67.4437 182.752 67.9459C180.558 68.9504 178.364 70.0774 176.294 71.3255C172.275 73.5754 168.747 75.9424 165.969 79.6488C165.486 80.2667 166.597 80.9895 167.204 80.4927Z" fill="#FF8F6B"/>
<path d="M147.075 22.5193C146.949 22.1532 146.945 21.7857 146.817 21.297C146.814 21.052 146.69 20.9309 146.689 20.8083C146.687 20.6858 146.686 20.5633 146.562 20.4422C146.561 20.3197 146.438 20.321 146.437 20.1985C146.313 20.0774 146.189 19.9563 146.066 19.9576C145.944 19.959 145.823 20.0828 145.701 20.2067C145.703 20.3292 145.58 20.3306 145.582 20.4531C145.583 20.5756 145.584 20.6981 145.586 20.8206C145.588 21.0656 145.591 21.3106 145.716 21.5542C145.72 21.9217 145.847 22.2879 145.974 22.6541L145.972 22.5316L145.974 22.6541C145.975 22.7766 146.1 23.0202 146.224 23.1414C146.348 23.2625 146.595 23.3823 146.716 23.2584C146.838 23.2571 147.082 23.1318 147.081 23.0093C147.081 23.0093 147.078 22.7643 147.075 22.5193Z" fill="#030229"/>
<path d="M152.172 40.1056C152.259 36.9192 153.208 34.0907 154.279 31.1384C154.875 29.6616 155.473 28.3072 156.193 26.9515C156.914 25.5958 157.637 24.4851 157.988 23.011C157.985 22.766 157.736 22.4012 157.494 22.6489C156.886 23.1457 156.523 23.5173 156.039 24.1353C155.679 24.7519 155.319 25.491 154.958 26.1076C154.239 27.5858 153.52 29.064 152.925 30.6633C151.855 33.6156 151.279 36.93 151.192 40.1165C151.321 40.7277 152.179 40.7182 152.172 40.1056Z" fill="#FF8F6B"/>
<path d="M162.482 19.4081C162.602 19.1618 162.723 19.0379 162.843 18.7915C162.843 18.7915 162.845 18.9141 162.722 18.9154C162.722 18.9154 162.721 18.7929 162.843 18.7915L162.964 18.6677C163.086 18.5438 163.086 18.5438 163.207 18.42C163.448 18.0497 163.813 17.8006 164.054 17.4304C164.295 17.0602 164.66 16.8111 164.901 16.4409C165.02 16.1945 165.264 16.0693 165.384 15.8229C165.383 15.7004 165.505 15.6991 165.504 15.5766C165.625 15.4527 165.624 15.3302 165.622 15.2077C165.742 14.9613 165.493 14.5965 165.125 14.6006C165.003 14.602 164.88 14.6033 164.635 14.606C164.513 14.6074 164.514 14.7299 164.391 14.7313C164.391 14.7313 164.391 14.7313 164.269 14.7326C164.391 14.7313 164.391 14.7313 164.269 14.7326C164.024 14.7353 163.781 14.9831 163.538 15.1083C163.05 15.3587 162.687 15.7303 162.323 16.1019C161.96 16.4735 161.596 16.8451 161.356 17.3378C161.115 17.708 160.753 18.2021 160.635 18.571C160.394 18.9412 160.523 19.5524 161.016 19.792C161.753 19.9063 162.241 19.7784 162.482 19.4081Z" fill="#FF8F6B"/>
<path d="M158.448 42.3639C158.805 41.3798 159.285 40.5168 159.642 39.5327C159.999 38.5486 160.357 37.687 160.836 36.7015C161.317 35.8386 161.674 34.8545 162.154 33.9915C162.635 33.1285 163.361 32.2629 163.473 31.2815C163.468 30.9139 163.099 30.7955 162.854 30.7982C161.877 31.0541 161.399 32.1621 160.794 32.9039C160.069 33.7696 159.589 34.755 159.11 35.7405C158.631 36.726 158.274 37.7101 157.918 38.8167C157.801 39.3081 157.562 39.8008 157.569 40.4133C157.451 40.9047 157.458 41.5172 157.464 42.0072C157.348 42.6211 158.208 42.8566 158.448 42.3639Z" fill="#FF8F6B"/>
<path d="M165.161 28.9349C165.399 28.3197 165.761 27.8256 166.124 27.3315C166.606 26.591 166.841 25.7308 167.325 25.1128C167.808 24.4949 168.418 24.2431 169.025 23.7463C169.632 23.2495 170.24 22.7527 170.846 22.1333C173.15 19.9025 175.824 17.9125 178.624 16.2887C179.356 15.9131 180.087 15.5374 180.818 15.1617C181.305 14.9113 182.035 14.4131 181.661 13.8047C181.035 12.5864 178.601 14.2062 177.87 14.5818C175.069 16.2056 172.767 18.559 170.217 20.6701C169.487 21.1683 168.881 21.7876 168.275 22.4069C167.669 23.0262 167.188 23.8891 166.583 24.5085C165.977 25.1278 165.245 25.5034 164.64 26.1227C164.155 26.6182 163.795 27.3573 163.558 28.095C163.079 29.0805 164.56 30.0442 165.161 28.9349Z" fill="#FF8F6B"/>
<path opacity="0.5" d="M107.149 36.0715C107.629 35.0861 107.738 33.8597 107.603 32.7585C107.589 31.5334 107.453 30.3098 107.196 29.2099C107.193 28.9649 106.703 28.9704 106.706 29.2154C106.595 30.3193 106.608 31.4218 106.621 32.6468C106.632 33.6269 106.644 34.7294 106.286 35.591C106.048 36.2063 106.911 36.6868 107.149 36.0715Z" fill="#EF37FF"/>
<g opacity="0.5">
<path d="M107.218 20.1433C107.206 19.0407 107.316 17.9368 107.183 16.9582C107.048 15.857 106.67 14.881 106.046 13.9078C105.921 13.6641 105.432 13.7921 105.559 14.1582C106.071 16.1129 106.094 18.1954 106.117 20.278C106.001 20.8919 107.227 20.8783 107.218 20.1433Z" fill="#EF37FF"/>
</g>
<path opacity="0.5" d="M101.708 9.66765C101.452 8.69034 101.074 7.71438 100.574 6.86229C100.325 6.49749 100.197 6.00883 99.9478 5.64404C99.6986 5.27924 99.4454 4.54694 98.9552 4.55237C98.7102 4.55509 98.4651 4.5578 98.3453 4.80417C98.1056 5.2969 98.4787 5.78284 98.7292 6.27014C98.9783 6.63494 99.2289 7.12224 99.3555 7.48839C99.8551 8.34048 100.232 9.19394 100.487 10.0487C100.74 10.7811 101.961 10.4 101.708 9.66765Z" fill="#EF37FF"/>
<path opacity="0.5" d="M107.327 7.8901C107.562 6.90735 107.672 5.80346 107.782 4.69956C107.777 4.20955 107.77 3.59703 107.765 3.10701C107.759 2.617 107.752 2.00448 107.502 1.51718C107.375 1.15102 106.885 1.15646 106.767 1.52533C106.527 2.01806 106.534 2.63058 106.539 3.1206C106.545 3.61061 106.55 4.10063 106.556 4.59064C106.566 5.57067 106.455 6.55206 106.343 7.53345C106.346 7.77846 106.472 8.14462 106.717 8.1419C106.965 8.38419 107.332 8.25761 107.327 7.8901Z" fill="#EF37FF"/>
<path opacity="0.5" d="M112.023 11.3911C112.254 10.1634 112.732 9.05541 113.334 8.06859C113.936 7.08176 114.784 6.21473 115.509 5.22654C115.629 4.98018 115.502 4.61402 115.258 4.73924C113.914 5.1217 112.946 6.2351 112.346 7.34443C111.623 8.45512 111.27 9.80673 111.039 11.0345C110.802 11.7722 111.909 12.1275 112.023 11.3911Z" fill="#EF37FF"/>
<path d="M193.075 59.5002C193.196 59.3763 193.195 59.2538 193.316 59.13C193.436 58.8836 193.556 58.6373 193.553 58.3922C193.55 58.1472 193.549 58.0247 193.669 57.7784L193.667 57.6559C193.666 57.5334 193.665 57.4109 193.663 57.2883C193.66 57.0433 193.658 56.7983 193.533 56.5547C193.53 56.3097 193.406 56.1885 193.282 56.0674C193.032 55.5801 192.537 55.218 191.923 55.1023C192.17 55.2221 192.416 55.3419 192.664 55.5842C192.416 55.3419 192.17 55.2221 191.925 55.2248C191.678 55.105 191.433 55.1077 191.312 55.2316C191.067 55.2343 190.946 55.3582 190.702 55.4834C190.458 55.6086 190.216 55.8563 190.096 56.1027C190.461 55.8536 190.703 55.6059 191.068 55.3568C190.946 55.3582 190.824 55.482 190.702 55.4834C190.458 55.6086 190.214 55.7338 190.093 55.8577C189.972 55.9816 189.851 56.1054 189.73 56.2293C189.731 56.3518 189.608 56.3531 189.61 56.4756C189.611 56.5981 189.49 56.722 189.491 56.8445C189.613 56.7207 189.61 56.4756 189.731 56.3518C189.732 56.4743 189.61 56.4756 189.611 56.5982C189.613 56.7207 189.49 56.722 189.491 56.8445C189.37 56.9684 189.373 57.2134 189.252 57.3372C189.132 57.5836 189.012 57.83 189.016 58.1975C188.896 58.4439 189.023 58.81 189.026 59.055C189.151 59.2987 189.276 59.5423 189.401 59.786C189.527 60.0296 189.774 60.2719 190.021 60.3917C190.145 60.5128 190.39 60.5101 190.514 60.6313C190.883 60.7497 191.373 60.7443 191.739 60.6177C191.86 60.4938 192.105 60.4911 192.227 60.3672C192.714 60.1168 192.955 59.7466 193.075 59.5002Z" fill="#FF8F6B"/>
<path d="M188.193 17.0402C188.191 16.9177 188.069 16.9191 188.068 16.7966C187.944 16.6755 187.82 16.5543 187.818 16.4318C187.818 16.4318 187.694 16.3107 187.572 16.312C187.325 16.1922 187.324 16.0697 186.955 15.9513C186.833 15.9527 186.586 15.8329 186.464 15.8342C186.341 15.8356 186.096 15.8383 186.096 15.8383L185.73 15.9649C185.486 16.0901 185.365 16.214 185.245 16.4603C185.124 16.5842 185.124 16.5842 185.125 16.7067C185.127 16.8292 185.004 16.8306 185.005 16.9531C184.886 17.1994 184.767 17.5683 184.771 17.9358C184.775 18.3033 184.9 18.547 185.027 18.9131C185.401 19.5216 186.018 19.8823 186.631 19.8755C187.244 19.8687 187.975 19.493 188.213 18.8778C188.333 18.6314 188.451 18.2626 188.447 17.8951C188.445 17.6501 188.319 17.4064 188.193 17.0402Z" fill="#FF8F6B"/>
<path d="M98.0421 32.7419C97.0252 29.4452 97.4759 25.8871 98.052 22.5727C98.0493 22.3277 97.8028 22.2079 97.683 22.4543C96.4943 25.7755 96.1687 29.5772 97.1871 32.9964C97.1939 33.609 98.1715 33.3531 98.0421 32.7419Z" fill="#030229"/>
<circle opacity="0.05" cx="110.205" cy="115" r="92" fill="#605BFF"/>
<g filter="url(#filter0_d_570_13888)">
<path fill-rule="evenodd" clip-rule="evenodd" d="M110.613 79.2112C112.851 101.044 100.019 110.15 96.3828 112.269C96.4129 112.494 96.4279 112.735 96.4279 112.975L96.4279 144.124L102.408 147.415L133.858 147.415C133.918 147.415 133.993 147.415 134.053 147.43C141.296 148.422 141.581 139.857 141.581 138.79C141.536 138.249 141.837 137.708 142.363 137.483C146.901 135.529 144.977 129.399 144.797 128.873C144.557 128.257 144.842 127.55 145.443 127.25C151.333 124.395 147.622 119.256 147.141 118.61C146.75 118.189 146.69 117.543 147.006 117.032C157.674 100.669 124.346 104.711 122.213 104.981C122.047 105.011 121.867 105.026 121.687 104.981C120.981 104.846 120.53 104.17 120.665 103.463C125.639 78.2645 114.174 78.535 110.583 79.1811L110.613 79.2112Z" fill="#5570F1"/>
<path fill-rule="evenodd" clip-rule="evenodd" d="M94.2935 144.5L94.2935 112.975C94.2935 112.224 93.993 111.548 93.4971 111.067C93.0013 110.571 92.3251 110.27 91.5888 110.27L74.9098 110.27C74.1585 110.27 73.4823 110.571 73.0015 111.067C72.5056 111.563 72.2051 112.239 72.2051 112.975L72.2051 144.5C72.2051 145.251 72.5056 145.927 73.0015 146.408C73.4973 146.904 74.1735 147.205 74.9098 147.205L91.5888 147.205C92.3401 147.205 93.0163 146.904 93.4971 146.408C93.9028 146.003 94.1733 145.477 94.2635 144.891C94.2635 144.8 94.2635 144.695 94.2935 144.605C94.2935 144.575 94.2935 144.53 94.2935 144.5Z" fill="#5570F1"/>
</g>
<defs>
<filter id="filter0_d_570_13888" x="48.2051" y="55.0002" width="124.902" height="116.509" filterUnits="userSpaceOnUse" color-interpolation-filters="sRGB">
<feFlood flood-opacity="0" result="BackgroundImageFix"/>
<feColorMatrix in="SourceAlpha" type="matrix" values="0 0 0 0 0 0 0 0 0 0 0 0 0 0 0 0 0 0 127 0" result="hardAlpha"/>
<feOffset/>
<feGaussianBlur stdDeviation="12"/>
<feComposite in2="hardAlpha" operator="out"/>
<feColorMatrix type="matrix" values="0 0 0 0 0.262745 0 0 0 0 0.733333 0 0 0 0 0.929412 0 0 0 0.5 0"/>
<feBlend mode="normal" in2="BackgroundImageFix" result="effect1_dropShadow_570_13888"/>
<feBlend mode="normal" in="SourceGraphic" in2="effect1_dropShadow_570_13888" result="shape"/>
</filter>
</defs>
</svg>
