<svg width="35" height="32" viewBox="0 0 35 32" fill="none" xmlns="http://www.w3.org/2000/svg">
<g clip-path="url(#clip0_342_5352)">
<path d="M10.0889 4.96876C10.0889 4.20598 10.1213 3.48889 10.0823 2.77596C9.99088 1.08255 11.2456 -0.0234055 12.8634 0.000691206C15.9585 0.0463918 19.0546 0.0380826 22.1497 0.000691206C23.7966 -0.017589 24.9956 1.12742 24.9051 2.75934C24.8652 3.4731 24.8984 4.19102 24.8984 4.96627H25.3729C27.5839 4.96627 29.7959 5.0128 32.0053 4.95214C33.9056 4.90062 35.0057 6.39296 34.9966 7.9609C34.9708 14.7595 34.9808 21.5589 34.9766 28.3575C34.9766 30.1855 33.8283 31.3347 31.9961 31.3355C22.3093 31.3355 12.6224 31.3355 2.93554 31.3355C1.19061 31.3355 0.0181797 30.1481 0.015687 28.3741C0.00903962 23.4955 0.00903962 18.6172 0.015687 13.7391C0.015687 11.7632 -0.00342375 9.78726 -0.000100068 7.81134C-0.000100068 6.40625 0.840791 5.34683 2.18605 5.01945C2.33356 4.98657 2.48448 4.9715 2.63558 4.97458C4.93002 4.96959 7.22392 4.9671 9.51725 4.9671L10.0889 4.96876ZM2.51842 16.5925V17.1143C2.51842 20.7897 2.51842 24.4652 2.51842 28.1406C2.51842 28.8403 2.50928 28.8403 3.1898 28.8403L31.9155 28.8502C32.4382 28.8502 32.4855 28.8087 32.4855 28.2877C32.4855 24.5164 32.4855 20.7443 32.4855 16.9714C32.4855 16.8667 32.4722 16.762 32.4598 16.5908C31.4286 17.1451 30.3476 17.0952 29.2732 17.0894C26.966 17.0894 24.6586 17.0894 22.3508 17.0894H21.8797C21.8614 17.3644 21.8523 17.5971 21.8282 17.8281C21.716 18.8917 20.9324 19.6362 19.8705 19.6453C18.2685 19.6602 16.6659 19.6602 15.0628 19.6453C14.0865 19.6353 13.3038 18.9166 13.1691 17.9469C13.1318 17.6768 13.1226 17.4018 13.096 17.0861H12.6382C10.2061 17.0861 7.77482 17.0786 5.34271 17.0861C4.39713 17.0969 3.46899 17.0296 2.51842 16.5925ZM21.9354 14.5983H22.217C24.8976 14.5983 27.5781 14.5983 30.2587 14.5983C31.5881 14.5983 32.4373 13.7557 32.4448 12.4379C32.454 10.9589 32.4448 9.48065 32.4448 8.00245C32.4448 7.47398 32.4373 7.46651 31.9147 7.46651H22.7978H3.10505C2.55415 7.46651 2.55415 7.46651 2.55332 8.01907C2.55332 9.45656 2.5475 10.8932 2.55332 12.3307C2.54351 12.5649 2.56108 12.7994 2.60566 13.0295C2.71236 13.4768 2.96671 13.8751 3.32765 14.1601C3.68858 14.445 4.13503 14.6 4.59489 14.5999C7.35769 14.6091 10.1213 14.5999 12.885 14.5999C12.955 14.5947 13.0246 14.5852 13.0935 14.5717C13.0993 14.4454 13.1052 14.3374 13.1093 14.2285C13.1559 12.9497 13.9544 12.1329 15.2265 12.118C16.7604 12.0997 18.2943 12.1047 19.8281 12.118C20.7496 12.1271 21.5315 12.6922 21.7717 13.5198C21.8672 13.8463 21.8772 14.1978 21.9354 14.5983ZM12.6008 4.94051H22.3782V2.53084H12.6008V4.94051ZM19.3254 14.6972H15.6611V17.1334H19.3254V14.6972Z" fill="#5570F1"/>
</g>
<defs>
<clipPath id="clip0_342_5352">
<rect width="35" height="31.3398" fill="white"/>
</clipPath>
</defs>
</svg>
