<svg width="29" height="29" viewBox="0 0 29 29" fill="none" xmlns="http://www.w3.org/2000/svg">
<path d="M28.3749 13.4876L23.7174 11.159L28.3749 8.83016C29.2079 8.41373 29.2088 7.22065 28.3749 6.80356L15.0067 0.119485C14.6876 -0.0398283 14.3124 -0.0398283 13.9933 0.119485L0.625139 6.80356C-0.207937 7.22021 -0.208822 8.41329 0.625139 8.83016L5.28262 11.159L0.625139 13.4876C-0.207937 13.9043 -0.208822 15.0971 0.625139 15.5142L5.28262 17.8431L0.625139 20.1717C-0.207937 20.5884 -0.208822 21.7812 0.625139 22.1983L13.9933 28.8824C14.3117 29.0415 14.687 29.0422 15.0067 28.8824L28.3749 22.1983C29.2079 21.7817 29.2088 20.5888 28.3749 20.1717L23.7174 17.8431L28.3749 15.5142C29.2079 15.0978 29.2088 13.9047 28.3749 13.4876ZM14.5 2.39944L25.3349 7.81697L14.5 13.2343L3.66515 7.81697L14.5 2.39944ZM25.3349 21.1851L14.5 26.6024L3.66515 21.1851L7.81592 19.1096L13.9933 22.1983C14.3119 22.3574 14.687 22.3581 15.0067 22.1983L21.1841 19.1096L25.3349 21.1851ZM14.5 19.9184L3.66515 14.5011L7.81592 12.4256L13.9933 15.5142C14.3119 15.6733 14.687 15.674 15.0067 15.5142L21.1841 12.4256L25.3349 14.5011L14.5 19.9184Z" fill="white"/>
</svg>
