<svg width="44" height="44" viewBox="0 0 44 44" fill="none" xmlns="http://www.w3.org/2000/svg">
<path d="M29.3335 29.3334L22.0002 22M22.0002 22L14.6668 29.3334M22.0002 22V38.5M37.3818 33.715C39.17 32.7402 40.5825 31.1976 41.3966 29.3308C42.2107 27.464 42.3799 25.3793 41.8775 23.4056C41.3752 21.432 40.2299 19.6818 38.6224 18.4313C37.0149 17.1809 35.0367 16.5014 33.0002 16.5H30.6902C30.1352 14.3536 29.101 12.361 27.6651 10.6718C26.2292 8.98271 24.429 7.64107 22.4 6.74779C20.371 5.85451 18.1658 5.43284 15.9504 5.51446C13.7349 5.59609 11.5668 6.1789 9.60899 7.21907C7.6512 8.25924 5.95467 9.7297 4.64698 11.5199C3.33928 13.3101 2.45444 15.3735 2.05897 17.5549C1.6635 19.7363 1.7677 21.979 2.36373 24.1143C2.95976 26.2497 4.03211 28.2221 5.50017 29.8833" stroke="#3A57E8" stroke-width="3.38462" stroke-linecap="round" stroke-linejoin="round"/>
</svg>
