<svg width="221" height="72" viewBox="0 0 221 72" fill="none" xmlns="http://www.w3.org/2000/svg">
<path d="M97.0784 30.1927C96.9549 29.1499 96.454 28.3403 95.5758 27.764C94.6977 27.1877 93.6205 26.8995 92.3444 26.8995C91.4113 26.8995 90.5949 27.0505 89.8951 27.3524C89.2022 27.6542 88.6602 28.0693 88.2691 28.5976C87.8849 29.1259 87.6928 29.7262 87.6928 30.3986C87.6928 30.9611 87.8266 31.4448 88.0941 31.8496C88.3686 32.2475 88.7185 32.5803 89.1438 32.8479C89.5692 33.1086 90.0152 33.3247 90.4817 33.4962C90.9482 33.6609 91.377 33.7946 91.7681 33.8976L93.9087 34.4739C94.4575 34.6179 95.0681 34.8169 95.7405 35.0708C96.4197 35.3246 97.0681 35.6711 97.6855 36.1102C98.3099 36.5424 98.8244 37.0981 99.2292 37.7773C99.634 38.4566 99.8364 39.2901 99.8364 40.2781C99.8364 41.417 99.5379 42.4461 98.9411 43.3655C98.351 44.2848 97.4866 45.0155 96.3477 45.5575C95.2156 46.0995 93.8401 46.3705 92.2209 46.3705C90.7115 46.3705 89.4046 46.1269 88.3 45.6398C87.2022 45.1527 86.3378 44.4735 85.7066 43.6022C85.0823 42.7308 84.7289 41.7189 84.6466 40.5663H87.2811C87.3497 41.3621 87.6173 42.0207 88.0838 42.5422C88.5572 43.0567 89.1541 43.4409 89.8745 43.6948C90.6018 43.9418 91.3839 44.0653 92.2209 44.0653C93.1951 44.0653 94.0699 43.9075 94.8452 43.5919C95.6204 43.2694 96.2345 42.8235 96.6873 42.254C97.1401 41.6777 97.3665 41.0053 97.3665 40.2369C97.3665 39.5371 97.171 38.9677 96.7799 38.5286C96.3888 38.0895 95.8743 37.7327 95.2362 37.4583C94.5982 37.1839 93.9087 36.9437 93.1677 36.7379L90.5743 35.997C88.9277 35.5236 87.6242 34.8478 86.6637 33.9696C85.7032 33.0914 85.2229 31.9422 85.2229 30.522C85.2229 29.342 85.5419 28.3129 86.18 27.4347C86.8249 26.5496 87.6894 25.8636 88.7734 25.3764C89.8642 24.8825 91.082 24.6355 92.4267 24.6355C93.7852 24.6355 94.9927 24.879 96.0492 25.3662C97.1058 25.8464 97.9428 26.505 98.5603 27.3421C99.1846 28.1791 99.5139 29.1293 99.5482 30.1927H97.0784ZM103.703 46V30.1927H106.05V32.6626H106.256C106.585 31.8187 107.117 31.1635 107.851 30.697C108.585 30.2236 109.466 29.9869 110.495 29.9869C111.538 29.9869 112.406 30.2236 113.099 30.697C113.799 31.1635 114.344 31.8187 114.735 32.6626H114.9C115.305 31.8462 115.912 31.1978 116.722 30.7176C117.531 30.2305 118.502 29.9869 119.634 29.9869C121.047 29.9869 122.203 30.4294 123.102 31.3145C124.001 32.1926 124.45 33.5614 124.45 35.4207V46H122.022V35.4207C122.022 34.2543 121.703 33.4207 121.065 32.9199C120.426 32.4191 119.675 32.1686 118.811 32.1686C117.699 32.1686 116.838 32.5048 116.228 33.1772C115.617 33.8427 115.312 34.6865 115.312 35.7088V46H112.842V35.1737C112.842 34.2749 112.55 33.5511 111.967 33.0022C111.384 32.4465 110.633 32.1686 109.713 32.1686C109.082 32.1686 108.492 32.3367 107.943 32.6729C107.401 33.0091 106.962 33.4756 106.626 34.0725C106.297 34.6625 106.132 35.3452 106.132 36.1205V46H103.703ZM133.543 46.3705C132.541 46.3705 131.632 46.1818 130.815 45.8045C129.999 45.4203 129.351 44.868 128.87 44.1476C128.39 43.4203 128.15 42.5422 128.15 41.513C128.15 40.6074 128.328 39.8733 128.685 39.3107C129.042 38.7413 129.519 38.2953 130.116 37.9729C130.713 37.6504 131.371 37.4103 132.092 37.2525C132.819 37.0878 133.549 36.9575 134.284 36.8614C135.244 36.7379 136.023 36.6453 136.62 36.5836C137.223 36.515 137.663 36.4017 137.937 36.2439C138.218 36.0862 138.359 35.8117 138.359 35.4207V35.3383C138.359 34.3229 138.081 33.5339 137.525 32.9713C136.976 32.4088 136.143 32.1275 135.025 32.1275C133.865 32.1275 132.956 32.3813 132.297 32.889C131.639 33.3967 131.176 33.9387 130.908 34.515L128.603 33.6917C129.014 32.7312 129.563 31.9834 130.249 31.4483C130.942 30.9062 131.697 30.5289 132.514 30.3162C133.337 30.0967 134.146 29.9869 134.942 29.9869C135.45 29.9869 136.033 30.0487 136.692 30.1721C137.357 30.2888 137.999 30.5323 138.616 30.9028C139.241 31.2733 139.759 31.8325 140.17 32.5803C140.582 33.3281 140.788 34.3298 140.788 35.5853V46H138.359V43.8594H138.235C138.071 44.2025 137.796 44.5695 137.412 44.9606C137.028 45.3517 136.517 45.6844 135.879 45.9588C135.241 46.2333 134.462 46.3705 133.543 46.3705ZM133.913 44.1888C134.874 44.1888 135.683 44.0001 136.342 43.6227C137.007 43.2454 137.508 42.7583 137.844 42.1614C138.187 41.5645 138.359 40.9367 138.359 40.2781V38.0552C138.256 38.1787 138.03 38.2919 137.68 38.3948C137.337 38.4909 136.939 38.5766 136.486 38.6521C136.04 38.7207 135.604 38.7824 135.179 38.8373C134.76 38.8854 134.421 38.9265 134.16 38.9608C133.529 39.0432 132.939 39.1769 132.39 39.3622C131.848 39.5406 131.409 39.8116 131.073 40.1752C130.743 40.5319 130.579 41.0191 130.579 41.6365C130.579 42.4804 130.891 43.1185 131.515 43.5507C132.146 43.9761 132.946 44.1888 133.913 44.1888ZM145.221 46V30.1927H147.567V32.5803H147.732C148.02 31.7982 148.541 31.1635 149.296 30.6764C150.051 30.1893 150.901 29.9457 151.848 29.9457C152.026 29.9457 152.249 29.9492 152.517 29.956C152.785 29.9629 152.987 29.9732 153.124 29.9869V32.4568C153.042 32.4362 152.853 32.4053 152.558 32.3642C152.27 32.3161 151.965 32.2921 151.642 32.2921C150.874 32.2921 150.188 32.4534 149.584 32.7758C148.987 33.0914 148.514 33.5305 148.164 34.0931C147.821 34.6488 147.649 35.2834 147.649 35.997V46H145.221ZM163.868 30.1927V32.251H155.676V30.1927H163.868ZM158.064 26.4056H160.493V41.4719C160.493 42.158 160.592 42.6725 160.791 43.0156C160.997 43.3517 161.258 43.5781 161.573 43.6948C161.896 43.8045 162.235 43.8594 162.592 43.8594C162.86 43.8594 163.079 43.8457 163.251 43.8183C163.422 43.784 163.559 43.7565 163.662 43.7359L164.156 45.9177C163.992 45.9794 163.762 46.0412 163.467 46.1029C163.172 46.1715 162.798 46.2058 162.345 46.2058C161.659 46.2058 160.987 46.0583 160.328 45.7633C159.676 45.4683 159.134 45.0189 158.702 44.4152C158.277 43.8114 158.064 43.0499 158.064 42.1305V26.4056ZM167.131 46V24.9236H175.446C177.037 24.9236 178.396 25.2084 179.521 25.7778C180.653 26.3404 181.514 27.1397 182.104 28.1757C182.701 29.2048 183 30.4157 183 31.8084C183 33.208 182.698 34.4121 182.094 35.4207C181.49 36.4223 180.615 37.1907 179.47 37.7259C178.331 38.261 176.952 38.5286 175.333 38.5286H169.765V34.9473H174.612C175.463 34.9473 176.17 34.8306 176.732 34.5974C177.295 34.3641 177.713 34.0142 177.988 33.5477C178.269 33.0811 178.41 32.5014 178.41 31.8084C178.41 31.1086 178.269 30.5186 177.988 30.0384C177.713 29.5581 177.291 29.1945 176.722 28.9475C176.159 28.6936 175.449 28.5667 174.592 28.5667H171.587V46H167.131ZM178.513 36.4086L183.751 46H178.832L173.707 36.4086H178.513ZM186.149 46V24.9236H200.103V28.5976H190.605V33.6197H199.177V37.2937H190.605V46H186.149ZM203.101 46V24.9236H211.416C213.015 24.9236 214.377 25.2289 215.502 25.8396C216.627 26.4433 217.484 27.2837 218.074 28.3609C218.671 29.4312 218.97 30.6661 218.97 32.0657C218.97 33.4653 218.668 34.7003 218.064 35.7706C217.46 36.8408 216.586 37.6744 215.44 38.2713C214.301 38.8682 212.922 39.1666 211.303 39.1666H206.003V35.5956H210.582C211.44 35.5956 212.147 35.4481 212.702 35.1531C213.265 34.8512 213.684 34.4361 213.958 33.9078C214.239 33.3727 214.38 32.7587 214.38 32.0657C214.38 31.3659 214.239 30.7553 213.958 30.2339C213.684 29.7056 213.265 29.2974 212.702 29.0092C212.14 28.7142 211.426 28.5667 210.562 28.5667H207.557V46H203.101Z" fill="#30344D"/>
<path d="M44.6438 40.6258C43.4837 41.6161 34.0332 44.2758 26.1672 46.1433C26.1672 40.0599 26.4785 33.4672 27.2707 32.3354C28.4308 31.345 37.9096 28.6853 45.7756 26.8179C45.7756 32.873 45.4361 39.494 44.6438 40.6258Z" fill="#30344D"/>
<path d="M56.4709 24.9504C52.8492 25.1485 49.2557 25.771 45.7755 26.7896C45.7755 21.5833 45.351 16.7732 44.6437 16.0941C42.7196 15.415 17.3957 21.8097 15.4433 23.4791C14.0286 25.6578 14.0286 46.596 15.4433 47.9825C19.0651 47.7844 22.6585 47.1619 26.1388 46.1433C26.1388 51.3779 26.5632 56.188 27.2706 56.8105C29.2512 57.4896 54.5186 51.0949 56.4709 49.4255C57.9706 47.2751 57.9706 26.3369 56.4709 24.9504ZM36.0703 66.5156C19.2631 66.5156 5.625 52.8775 5.625 36.0703C5.625 19.2631 19.2631 5.625 36.0703 5.625C52.8775 5.625 66.5156 19.2631 66.5156 36.0703C66.5156 52.8775 52.9058 66.5156 36.0703 66.5156Z" fill="#30344D"/>
</svg>
